<?xml version="1.0" encoding="UTF-8"?>
<svg xmlns="http://www.w3.org/2000/svg" version="1.1" viewBox="0 0 363 363">
  <defs>
    <style>
      .st0 { fill: none; }
      .st2 { fill: currentColor; }
      .st3 { fill: none; }
    </style>
  </defs>
  <g>
    <path class="st0" d="M458-95V458H-95V-95H458ZM73.2,300.4c89.6,81.7,240,33.8,262.4-85.9C362.1,72.9,204.2-27,87.3,56.1,5.7,114.1-.7,233.1,73.2,300.4h0Z"/>
    <path class="st2" d="M73.2,300.4C-.7,233.1,5.7,114.1,87.3,56.1c116.9-83.1,274.8,16.8,248.3,158.4-22.4,119.8-172.8,167.7-262.4,85.9h0ZM118.3,222.6c-1-7.2.7-16.2,0-23.6l8.6,24.2c39,74.1,131.4,24.1,137.7-44.8,8.1-90.3-77.8-168.4-164.4-111.1C41.5,106.2,13,203.1,61.5,259.5c.9,1.1,0,2.9,3.5,1.9-1.2-52.5,14.1-127,69.7-147.4,74.5-27.4,113.2,68.3,53.8,96.4-14.4,6.8-37.8,5.6-48.8-6.9,35.8,12.1,79.6-24.3,56.1-59.9-24.5-37.1-71.9-13.7-92.4,15.3-36.8,52-33.7,138.3,36.3,159.7,63.9,19.6,134.5-10.3,166.3-68.3,39-71.1,6.9-172.6-74.9-193-1.1,4,1.2,4,2.5,5.7,27.2,34.9,48,64.9,46.3,112.5-2.1,55.3-56.3,113.2-114.4,99-22.2-5.4-44.1-29.1-47.2-51.8h0Z"/>
    <path class="st3" d="M118.3,222.6c3.1,22.7,25,46.4,47.2,51.8,58.1,14.2,112.3-43.7,114.4-99,1.8-47.6-19.1-77.6-46.3-112.5-1.3-1.7-3.6-1.6-2.5-5.7,81.8,20.4,113.9,121.9,74.9,193-31.8,58-102.4,87.9-166.3,68.3-69.9-21.4-73.1-107.7-36.3-159.7,20.5-29,67.9-52.4,92.4-15.3,23.5,35.6-20.3,72.1-56.1,59.9,11,12.5,34.4,13.7,48.8,6.9,59.4-28.2,20.7-123.8-53.8-96.4-55.6,20.4-70.9,94.9-69.7,147.4-3.5,1-2.5-.8-3.5-1.9-48.5-56.4-20-153.3,38.7-192.2,86.6-57.4,172.5,20.7,164.4,111.1-6.2,68.8-98.7,118.8-137.7,44.8l-8.6-24.2c.7,7.4-1,16.4,0,23.6h0Z"/>
  </g>
</svg>